TITLE ""
FILE "2Q_j_1514-1527.mp3" MP3
  TRACK 01 AUDIO
    TITLE "2Q_j_1514-1527_01"
    INDEX 01 00:00:00
  TRACK 02 AUDIO
    TITLE "2Q_j_1514-1527_02"
    INDEX 01 00:01:41
  TRACK 03 AUDIO
    TITLE "2Q_j_1514-1527_03"
    INDEX 01 00:02:11
  TRACK 04 AUDIO
    TITLE "2Q_j_1514-1527_04"
    INDEX 01 00:03:16
  TRACK 05 AUDIO
    TITLE "2Q_j_1514-1527_05"
    INDEX 01 00:03:63
  TRACK 06 AUDIO
    TITLE "2Q_j_1514-1527_06"
    INDEX 01 00:08:37
  TRACK 07 AUDIO
    TITLE "2Q_j_1514-1527_07"
    INDEX 01 00:09:13
  TRACK 08 AUDIO
    TITLE "2Q_j_1514-1527_08"
    INDEX 01 00:10:36
  TRACK 09 AUDIO
    TITLE "2Q_j_1514-1527_09"
    INDEX 01 00:11:06
  TRACK 10 AUDIO
    TITLE "2Q_j_1514-1527_10"
    INDEX 01 00:12:21
  TRACK 11 AUDIO
    TITLE "2Q_j_1514-1527_11"
    INDEX 01 00:12:66
  TRACK 12 AUDIO
    TITLE "2Q_j_1514-1527_12"
    INDEX 01 00:16:64
  TRACK 13 AUDIO
    TITLE "2Q_j_1514-1527_13"
    INDEX 01 00:17:38
  TRACK 14 AUDIO
    TITLE "2Q_j_1514-1527_14"
    INDEX 01 00:18:55
  TRACK 15 AUDIO
    TITLE "2Q_j_1514-1527_15"
    INDEX 01 00:19:23
  TRACK 16 AUDIO
    TITLE "2Q_j_1514-1527_16"
    INDEX 01 00:21:58
  TRACK 17 AUDIO
    TITLE "2Q_j_1514-1527_17"
    INDEX 01 00:22:28
  TRACK 18 AUDIO
    TITLE "2Q_j_1514-1527_18"
    INDEX 01 00:26:19
  TRACK 19 AUDIO
    TITLE "2Q_j_1514-1527_19"
    INDEX 01 00:26:66
  TRACK 20 AUDIO
    TITLE "2Q_j_1514-1527_20"
    INDEX 01 00:28:01
  TRACK 21 AUDIO
    TITLE "2Q_j_1514-1527_21"
    INDEX 01 00:28:50
  TRACK 22 AUDIO
    TITLE "2Q_j_1514-1527_22"
    INDEX 01 00:32:06
  TRACK 23 AUDIO
    TITLE "2Q_j_1514-1527_23"
    INDEX 01 00:32:51
  TRACK 24 AUDIO
    TITLE "2Q_j_1514-1527_24"
    INDEX 01 00:37:17
  TRACK 25 AUDIO
    TITLE "2Q_j_1514-1527_25"
    INDEX 01 00:37:64
  TRACK 26 AUDIO
    TITLE "2Q_j_1514-1527_26"
    INDEX 01 00:39:06
  TRACK 27 AUDIO
    TITLE "2Q_j_1514-1527_27"
    INDEX 01 00:39:59
  TRACK 28 AUDIO
    TITLE "2Q_j_1514-1527_28"
    INDEX 01 00:42:42
  TRACK 29 AUDIO
    TITLE "2Q_j_1514-1527_29"
    INDEX 01 00:43:12
  TRACK 30 AUDIO
    TITLE "2Q_j_1514-1527_30"
    INDEX 01 00:48:17
  TRACK 31 AUDIO
    TITLE "2Q_j_1514-1527_31"
    INDEX 01 00:48:66
  TRACK 32 AUDIO
    TITLE "2Q_j_1514-1527_32"
    INDEX 01 00:50:22
  TRACK 33 AUDIO
    TITLE "2Q_j_1514-1527_33"
    INDEX 01 00:50:65
  TRACK 34 AUDIO
    TITLE "2Q_j_1514-1527_34"
    INDEX 01 00:52:40
  TRACK 35 AUDIO
    TITLE "2Q_j_1514-1527_35"
    INDEX 01 00:53:10
  TRACK 36 AUDIO
    TITLE "2Q_j_1514-1527_36"
    INDEX 01 00:57:40
  TRACK 37 AUDIO
    TITLE "2Q_j_1514-1527_37"
    INDEX 01 00:58:14
  TRACK 38 AUDIO
    TITLE "2Q_j_1514-1527_38"
    INDEX 01 00:59:48
  TRACK 39 AUDIO
    TITLE "2Q_j_1514-1527_39"
    INDEX 01 01:00:22
  TRACK 40 AUDIO
    TITLE "2Q_j_1514-1527_40"
    INDEX 01 01:01:65
  TRACK 41 AUDIO
    TITLE "2Q_j_1514-1527_41"
    INDEX 01 01:02:35
  TRACK 42 AUDIO
    TITLE "2Q_j_1514-1527_42"
    INDEX 01 01:05:08
  TRACK 43 AUDIO
    TITLE "2Q_j_1514-1527_43"
    INDEX 01 01:05:53
  TRACK 44 AUDIO
    TITLE "2Q_j_1514-1527_44"
    INDEX 01 01:07:32
  TRACK 45 AUDIO
    TITLE "2Q_j_1514-1527_45"
    INDEX 01 01:08:04
  TRACK 46 AUDIO
    TITLE "2Q_j_1514-1527_46"
    INDEX 01 01:10:60
  TRACK 47 AUDIO
    TITLE "2Q_j_1514-1527_47"
    INDEX 01 01:11:28
  TRACK 48 AUDIO
    TITLE "2Q_j_1514-1527_48"
    INDEX 01 01:15:61
  TRACK 49 AUDIO
    TITLE "2Q_j_1514-1527_49"
    INDEX 01 01:16:33
  TRACK 50 AUDIO
    TITLE "2Q_j_1514-1527_50"
    INDEX 01 01:17:58
  TRACK 51 AUDIO
    TITLE "2Q_j_1514-1527_51"
    INDEX 01 01:18:30
  TRACK 52 AUDIO
    TITLE "2Q_j_1514-1527_52"
    INDEX 01 01:20:31
  TRACK 53 AUDIO
    TITLE "2Q_j_1514-1527_53"
    INDEX 01 01:21:01
  TRACK 54 AUDIO
    TITLE "2Q_j_1514-1527_54"
    INDEX 01 01:26:14
  TRACK 55 AUDIO
    TITLE "2Q_j_1514-1527_55"
    INDEX 01 01:26:59
  TRACK 56 AUDIO
    TITLE "2Q_j_1514-1527_56"
    INDEX 01 01:28:24
  TRACK 57 AUDIO
    TITLE "2Q_j_1514-1527_57"
    INDEX 01 01:28:72
  TRACK 58 AUDIO
    TITLE "2Q_j_1514-1527_58"
    INDEX 01 01:32:58
  TRACK 59 AUDIO
    TITLE "2Q_j_1514-1527_59"
    INDEX 01 01:33:26
  TRACK 60 AUDIO
    TITLE "2Q_j_1514-1527_60"
    INDEX 01 01:36:24
  TRACK 61 AUDIO
    TITLE "2Q_j_1514-1527_61"
    INDEX 01 01:36:69
  TRACK 62 AUDIO
    TITLE "2Q_j_1514-1527_62"
    INDEX 01 01:38:17
  TRACK 63 AUDIO
    TITLE "2Q_j_1514-1527_63"
    INDEX 01 01:38:62
  TRACK 64 AUDIO
    TITLE "2Q_j_1514-1527_64"
    INDEX 01 01:41:10
  TRACK 65 AUDIO
    TITLE "2Q_j_1514-1527_65"
    INDEX 01 01:41:57
  TRACK 66 AUDIO
    TITLE "2Q_j_1514-1527_66"
    INDEX 01 01:45:56
  TRACK 67 AUDIO
    TITLE "2Q_j_1514-1527_67"
    INDEX 01 01:46:24
  TRACK 68 AUDIO
    TITLE "2Q_j_1514-1527_68"
    INDEX 01 01:47:45
  TRACK 69 AUDIO
    TITLE "2Q_j_1514-1527_69"
    INDEX 01 01:48:15
  TRACK 70 AUDIO
    TITLE "2Q_j_1514-1527_70"
    INDEX 01 01:50:14
  TRACK 71 AUDIO
    TITLE "2Q_j_1514-1527_71"
    INDEX 01 01:50:57
  TRACK 72 AUDIO
    TITLE "2Q_j_1514-1527_72"
    INDEX 01 01:56:07
  TRACK 73 AUDIO
    TITLE "2Q_j_1514-1527_73"
    INDEX 01 01:56:52
  TRACK 74 AUDIO
    TITLE "2Q_j_1514-1527_74"
    INDEX 01 01:57:69
  TRACK 75 AUDIO
    TITLE "2Q_j_1514-1527_75"
    INDEX 01 01:58:41
  TRACK 76 AUDIO
    TITLE "2Q_j_1514-1527_76"
    INDEX 01 02:02:41
  TRACK 77 AUDIO
    TITLE "2Q_j_1514-1527_77"
    INDEX 01 02:03:11
  TRACK 78 AUDIO
    TITLE "2Q_j_1514-1527_78"
    INDEX 01 02:08:14
  TRACK 79 AUDIO
    TITLE "2Q_j_1514-1527_79"
    INDEX 01 02:08:61
  TRACK 80 AUDIO
    TITLE "2Q_j_1514-1527_80"
    INDEX 01 02:09:74
  TRACK 81 AUDIO
    TITLE "2Q_j_1514-1527_81"
    INDEX 01 02:10:44
  TRACK 82 AUDIO
    TITLE "2Q_j_1514-1527_82"
    INDEX 01 02:12:22
  TRACK 83 AUDIO
    TITLE "2Q_j_1514-1527_83"
    INDEX 01 02:12:65
  TRACK 84 AUDIO
    TITLE "2Q_j_1514-1527_84"
    INDEX 01 02:17:05
